<svg width="22" height="22" viewBox="0 0 22 22" fill="none" xmlns="http://www.w3.org/2000/svg">
<path d="M3.03699 18.3645C2.76121 18.3645 2.47011 18.3186 2.16369 18.2266C1.85727 18.1347 1.59681 17.9662 1.38232 17.721C1.15251 17.4912 1.0376 17.1772 1.0376 16.7788C1.0376 16.5643 1.1142 16.3345 1.26741 16.0894C1.4053 15.8289 1.58915 15.691 1.81897 15.6757C1.75768 15.737 1.71172 15.8366 1.68108 15.9745C1.66576 16.1123 1.6581 16.2349 1.6581 16.3422C1.67342 16.6026 1.78833 16.8248 2.00282 17.0086C2.21731 17.1925 2.55438 17.2844 3.01401 17.2844C3.5962 17.2844 4.20138 17.1159 4.82954 16.7788C5.47302 16.4264 6.11651 15.9668 6.75999 15.3999C7.41879 14.8177 8.05461 14.1742 8.66745 13.4695C9.29561 12.7647 9.87015 12.0523 10.3911 11.3322C10.8813 10.6428 11.4559 9.8767 12.1147 9.03405C12.7735 8.19139 13.4859 7.37172 14.252 6.57503C15.018 5.77834 15.7994 5.11953 16.5961 4.59862C16.2284 4.38413 15.7764 4.2156 15.2402 4.09303C14.7039 3.95514 14.0681 3.88619 13.3327 3.88619C12.2602 3.88619 11.2567 4.0394 10.3221 4.34582C9.38754 4.65224 8.53722 5.05825 7.77117 5.56384C7.00512 6.06944 6.33866 6.62865 5.77178 7.24149C5.22023 7.83901 4.79124 8.45185 4.48482 9.08001C4.19372 9.69285 4.04817 10.2597 4.04817 10.7806C4.04817 11.2862 4.20138 11.7152 4.5078 12.0676C4.82954 12.4047 5.3428 12.6038 6.04756 12.6651C6.13949 12.6651 6.18545 12.6881 6.18545 12.7341C6.18545 12.7953 6.11651 12.8183 5.97862 12.803C5.05936 12.7264 4.37757 12.4659 3.93326 12.0216C3.50428 11.562 3.28978 11.0028 3.28978 10.344C3.28978 9.65455 3.51194 8.9268 3.95625 8.16075C4.41588 7.37938 5.07468 6.64397 5.93265 5.95453C6.79063 5.24976 7.83246 4.68289 9.05814 4.2539C10.2991 3.80959 11.6933 3.58744 13.2408 3.58744C14.0834 3.58744 14.8188 3.65638 15.447 3.79427C16.0751 3.93216 16.6114 4.10835 17.0557 4.32284C17.8983 3.81725 18.718 3.56445 19.5147 3.56445C19.9131 3.56445 20.2961 3.6717 20.6638 3.88619C21.0468 4.08537 21.2383 4.46839 21.2383 5.03527C21.1464 4.79013 20.9166 4.56032 20.5489 4.34582C20.1965 4.11601 19.7828 4.0011 19.3079 4.0011C18.9861 4.0011 18.6644 4.04707 18.3427 4.13899C18.0209 4.23092 17.7068 4.36115 17.4004 4.52968C17.9366 4.86674 18.3273 5.25742 18.5725 5.70173C18.8176 6.14604 18.9402 6.60567 18.9402 7.08062C18.9402 7.70878 18.7257 8.32162 18.2967 8.91914C17.8677 9.51666 17.3008 10.0069 16.5961 10.39C15.8913 10.7577 15.1176 10.9415 14.2749 10.9415C14.2903 11.0028 14.2979 11.0641 14.2979 11.1254C14.2979 11.1866 14.2979 11.2556 14.2979 11.3322C14.2979 11.7765 14.229 12.3434 14.0911 13.0328C14.0604 13.232 14.0068 13.5461 13.9302 13.9751C13.8689 14.4041 13.8383 14.8407 13.8383 15.285C13.8383 15.8059 13.9072 16.2656 14.0451 16.6639C14.1983 17.0622 14.4818 17.2614 14.8954 17.2614C15.2785 17.2614 15.6691 17.1235 16.0675 16.8478C16.4658 16.5567 16.8335 16.2273 17.1706 15.8595C17.523 15.4918 17.7988 15.1931 17.9979 14.9633C18.0592 14.9633 18.0899 15.0092 18.0899 15.1012C18.0899 15.239 18.0592 15.3463 17.9979 15.4229C17.2932 16.2502 16.642 16.8631 16.0445 17.2614C15.447 17.6444 14.7882 17.836 14.0681 17.836C13.7157 17.836 13.394 17.721 13.1029 17.4912C12.8118 17.2461 12.6662 16.7788 12.6662 16.0894C12.6662 15.7063 12.7352 15.285 12.8731 14.8254C13.011 14.3504 13.1642 13.8755 13.3327 13.4005C13.5165 12.9256 13.6774 12.4966 13.8153 12.1136C13.9532 11.7152 14.0221 11.4088 14.0221 11.1943C14.0221 11.0717 14.0068 10.9951 13.9762 10.9645C13.777 10.9338 13.6238 10.8726 13.5165 10.7806C13.4246 10.6734 13.3787 10.5738 13.3787 10.4819C13.3787 10.3593 13.4553 10.298 13.6085 10.298C13.9455 10.298 14.16 10.4666 14.252 10.8036C14.7116 10.7577 15.1635 10.6044 15.6079 10.344C16.0522 10.0682 16.4429 9.73881 16.7799 9.35579C17.1323 8.95744 17.4081 8.53611 17.6073 8.09181C17.8217 7.6475 17.929 7.21851 17.929 6.80484C17.929 6.43714 17.8447 6.08476 17.6762 5.74769C17.5077 5.39531 17.2472 5.08123 16.8948 4.80545C16.2973 5.18848 15.7074 5.67875 15.1252 6.27627C14.5584 6.85847 14.0068 7.48663 13.4706 8.16075C12.9497 8.81955 12.4594 9.47069 11.9998 10.1142C11.5401 10.7577 11.1265 11.3399 10.7588 11.8608C10.2225 12.5962 9.67098 13.3469 9.1041 14.113C8.53722 14.879 7.9397 15.5838 7.31154 16.2273C6.68338 16.8707 6.01692 17.384 5.31215 17.767C4.60739 18.1654 3.849 18.3645 3.03699 18.3645Z" fill="#FBFBFB"/>
</svg>
