<svg width="20" height="20" viewBox="0 0 20 20" fill="none" xmlns="http://www.w3.org/2000/svg">
<g clip-path="url(#clip0_630_12590)">
<path d="M13.75 0.390625H6.25C3.01396 0.390625 0.390625 3.01396 0.390625 6.25V13.75C0.390625 16.986 3.01396 19.6094 6.25 19.6094H13.75C16.986 19.6094 19.6094 16.986 19.6094 13.75V6.25C19.6094 3.01396 16.986 0.390625 13.75 0.390625Z" stroke="white" stroke-width="1.33333"/>
<path d="M6.27637 11.123V13.8545C6.27638 13.9892 6.29922 14.1102 6.34375 14.2178C6.38876 14.3265 6.45048 14.4192 6.52832 14.4971H6.52734C6.60753 14.5754 6.7002 14.6358 6.80469 14.6787H6.80371C6.91023 14.7199 7.0239 14.7402 7.14453 14.7402C7.26906 14.7402 7.38336 14.7185 7.4873 14.6758C7.59382 14.6328 7.68574 14.5721 7.76367 14.4941C7.84141 14.4164 7.90229 14.3233 7.94531 14.2148L7.97461 14.1318C7.99985 14.0464 8.01269 13.954 8.0127 13.8545V11.123H8.94629V13.8604C8.94629 14.212 8.87047 14.5211 8.71777 14.7852C8.56563 15.0483 8.35399 15.2536 8.08301 15.3994H8.08203C7.81064 15.5433 7.49761 15.6143 7.14453 15.6143C6.79146 15.6143 6.47841 15.5433 6.20703 15.3994H6.20605C5.93506 15.2536 5.72348 15.0483 5.57129 14.7852C5.41864 14.5211 5.34277 14.212 5.34277 13.8604V11.1299L5.39844 11.1289L6.2207 11.123H6.27637ZM6.27637 4.7168V7.44824C6.27637 7.58292 6.29921 7.70392 6.34375 7.81152C6.38876 7.92022 6.45048 8.01292 6.52832 8.09082H6.52734C6.60753 8.16914 6.7002 8.22954 6.80469 8.27246H6.80371C6.91023 8.31362 7.0239 8.33398 7.14453 8.33398C7.26906 8.33398 7.38336 8.31224 7.4873 8.26953C7.59382 8.22652 7.68574 8.16583 7.76367 8.08789C7.84141 8.01011 7.90229 7.91708 7.94531 7.80859L7.97461 7.72559C7.99985 7.64015 8.01269 7.5478 8.0127 7.44824V4.7168H8.94629V7.4541C8.94629 7.80584 8.87047 8.11482 8.71777 8.37891C8.56563 8.64202 8.35399 8.84738 8.08301 8.99316H8.08203C7.81064 9.13702 7.49761 9.208 7.14453 9.20801C6.79146 9.20801 6.47841 9.13702 6.20703 8.99316H6.20605C5.93506 8.84738 5.72348 8.64201 5.57129 8.37891C5.41864 8.11482 5.34277 7.80584 5.34277 7.4541V4.72363L5.39844 4.72266L6.2207 4.7168H6.27637Z" fill="white" stroke="white" stroke-width="0.111111"/>
<path d="M12.1514 11.123L12.168 11.1484L13.0312 12.5049L13.8857 11.1494L13.9023 11.123H15.0371L14.9805 11.209L13.5996 13.2998L15.0156 15.4385L15.0732 15.5254H13.9434L13.9277 15.499L13.0312 14.0947L12.1318 15.499L12.1152 15.5254H10.9805L11.0381 15.4385L12.459 13.2998L11.0791 11.209L11.0225 11.123H12.1514ZM13.4873 4.7168V9.11914H12.5654V4.7168H13.4873Z" fill="white" stroke="white" stroke-width="0.111111"/>
</g>
<defs>
<clipPath id="clip0_630_12590">
<rect width="20" height="20" rx="6" fill="white"/>
</clipPath>
</defs>
</svg>
