<svg width="200" height="200" viewBox="0 0 200 200" fill="none" xmlns="http://www.w3.org/2000/svg">
<path d="M187 99C187 118.49 180.674 137.452 168.972 153.038C157.27 168.623 140.825 179.989 122.109 185.426C103.394 190.864 83.4186 190.079 65.1873 183.19C46.956 176.301 31.4535 163.68 21.0106 147.224C10.5676 130.769 5.74839 111.368 7.27752 91.9387C8.80665 72.5093 16.6015 54.1013 29.4901 39.482C42.3787 24.8627 59.6647 14.8222 78.7492 10.87C97.8338 6.9178 117.686 9.26742 135.32 17.5656L112.328 66.4263C105.274 63.107 97.3335 62.1671 89.6997 63.748C82.0659 65.3289 75.1515 69.3451 69.9961 75.1928C64.8406 81.0405 61.7227 88.4037 61.111 96.1755C60.4994 103.947 62.4271 111.708 66.6042 118.29C70.7814 124.872 76.9824 129.92 84.275 132.676C91.5675 135.432 99.5575 135.746 107.044 133.571C114.53 131.396 121.108 126.849 125.789 120.615C130.469 114.381 133 106.796 133 99H187Z" fill="url(#paint0_angular_2076_3571)"/>
<circle cx="159" cy="155" r="34" fill="url(#paint1_linear_2076_3571)"/>
<defs>
<radialGradient id="paint0_angular_2076_3571" cx="0" cy="0" r="1" gradientUnits="userSpaceOnUse" gradientTransform="translate(97 99) rotate(0.372019) scale(78.8897 78.8802)">
<stop stop-color="white" stop-opacity="0"/>
<stop offset="0.4" stop-color="white"/>
<stop offset="0.904" stop-color="white"/>
</radialGradient>
<linearGradient id="paint1_linear_2076_3571" x1="181.344" y1="182.972" x2="136.438" y2="120.896" gradientUnits="userSpaceOnUse">
<stop stop-color="#B6F100"/>
<stop offset="1" stop-color="#FFFA33"/>
</linearGradient>
</defs>
</svg>
