<svg width="148" height="148" viewBox="0 0 148 148" fill="none" xmlns="http://www.w3.org/2000/svg">
<g clip-path="url(#clip0_634_12788)">
<g filter="url(#filter0_iiiiii_634_12788)">
<rect x="-1.56689" y="-1.67627" width="151.133" height="151.133" rx="21.9886" fill="#CBC5BA"/>
<rect x="-1.56689" y="-1.67627" width="151.133" height="151.133" rx="21.9886" fill="url(#paint0_linear_634_12788)" style="mix-blend-mode:overlay"/>
</g>
<g filter="url(#filter1_diiiiii_634_12788)">
<path d="M0 34.9618C0 22.8545 0 16.8008 2.31881 12.1602C4.44716 7.90067 7.90067 4.44716 12.1602 2.31881C16.8008 0 22.8545 0 34.9618 0H113.038C125.146 0 131.199 0 135.84 2.31881C140.099 4.44716 143.553 7.90067 145.681 12.1602C148 16.8008 148 22.8545 148 34.9618V111.178C148 115.834 148 118.163 147.108 119.947C146.29 121.586 144.961 122.914 143.323 123.733C141.538 124.624 139.21 124.624 134.553 124.624H13.4469C8.79019 124.624 6.46186 124.624 4.67698 123.733C3.03872 122.914 1.71044 121.586 0.891851 119.947C0 118.163 0 115.834 0 111.178V34.9618Z" fill="#CCC5B9"/>
<path d="M0 34.9618C0 22.8545 0 16.8008 2.31881 12.1602C4.44716 7.90067 7.90067 4.44716 12.1602 2.31881C16.8008 0 22.8545 0 34.9618 0H113.038C125.146 0 131.199 0 135.84 2.31881C140.099 4.44716 143.553 7.90067 145.681 12.1602C148 16.8008 148 22.8545 148 34.9618V111.178C148 115.834 148 118.163 147.108 119.947C146.29 121.586 144.961 122.914 143.323 123.733C141.538 124.624 139.21 124.624 134.553 124.624H13.4469C8.79019 124.624 6.46186 124.624 4.67698 123.733C3.03872 122.914 1.71044 121.586 0.891851 119.947C0 118.163 0 115.834 0 111.178V34.9618Z" fill="url(#paint1_linear_634_12788)" style="mix-blend-mode:overlay"/>
</g>
<g filter="url(#filter2_iiiiiii_634_12788)">
<path d="M11.5098 29.8622C11.5098 22.8772 11.5098 19.3847 12.8475 16.7074C14.0754 14.25 16.0678 12.2576 18.5252 11.0297C21.2025 9.69189 24.695 9.69189 31.6801 9.69189H116.32C123.305 9.69189 126.797 9.69189 129.475 11.0297C131.932 12.2576 133.924 14.25 135.152 16.7074C136.49 19.3847 136.49 22.8772 136.49 29.8622V110.898C136.49 112.295 136.49 112.994 136.223 113.529C135.977 114.021 135.578 114.419 135.087 114.665C134.552 114.932 133.853 114.932 132.456 114.932H15.5438C14.1468 114.932 13.4483 114.932 12.9129 114.665C12.4214 114.419 12.0229 114.021 11.7773 113.529C11.5098 112.994 11.5098 112.295 11.5098 110.898V29.8622Z" fill="#CCC5B9"/>
<path d="M11.5098 29.8622C11.5098 22.8772 11.5098 19.3847 12.8475 16.7074C14.0754 14.25 16.0678 12.2576 18.5252 11.0297C21.2025 9.69189 24.695 9.69189 31.6801 9.69189H116.32C123.305 9.69189 126.797 9.69189 129.475 11.0297C131.932 12.2576 133.924 14.25 135.152 16.7074C136.49 19.3847 136.49 22.8772 136.49 29.8622V110.898C136.49 112.295 136.49 112.994 136.223 113.529C135.977 114.021 135.578 114.419 135.087 114.665C134.552 114.932 133.853 114.932 132.456 114.932H15.5438C14.1468 114.932 13.4483 114.932 12.9129 114.665C12.4214 114.419 12.0229 114.021 11.7773 113.529C11.5098 112.994 11.5098 112.295 11.5098 110.898V29.8622Z" fill="url(#paint2_linear_634_12788)" style="mix-blend-mode:overlay"/>
</g>
<g filter="url(#filter3_i_634_12788)">
<path d="M16.9277 28.5075C16.9277 23.7711 16.9277 21.4028 17.8495 19.5938C18.6603 18.0024 19.9541 16.7087 21.5454 15.8978C23.3545 14.9761 25.7227 14.9761 30.4592 14.9761H117.54C122.276 14.9761 124.645 14.9761 126.454 15.8978C128.045 16.7087 129.339 18.0024 130.15 19.5938C131.071 21.4028 131.071 23.7711 131.071 28.5075V105.588C131.071 107.009 131.071 107.719 130.795 108.262C130.552 108.74 130.164 109.128 129.686 109.371C129.143 109.648 128.433 109.648 127.012 109.648H20.9872C19.5662 109.648 18.8558 109.648 18.313 109.371C17.8356 109.128 17.4475 108.74 17.2043 108.262C16.9277 107.719 16.9277 107.009 16.9277 105.588V28.5075Z" fill="url(#paint3_linear_634_12788)"/>
</g>
<g filter="url(#filter4_i_634_12788)">
<rect x="14.0747" y="127.714" width="10.1486" height="10.1486" rx="1.69143" fill="url(#paint4_linear_634_12788)"/>
</g>
<rect x="14.2016" y="127.841" width="9.89486" height="9.89486" rx="1.56457" stroke="url(#paint5_linear_634_12788)" stroke-opacity="0.75" stroke-width="0.253714"/>
<mask id="mask0_634_12788" style="mask-type:alpha" maskUnits="userSpaceOnUse" x="105" y="131" width="26" height="7">
<path d="M130.738 137.286C130.738 137.38 130.663 137.456 130.569 137.456H119.313C119.219 137.456 119.144 137.38 119.144 137.286V136.772C119.144 136.679 119.068 136.603 118.974 136.603H106.158C106.065 136.603 105.989 136.527 105.989 136.434V133.072C105.989 132.979 106.065 132.903 106.158 132.903H118.974C119.068 132.903 119.144 132.827 119.144 132.734V131.975C119.144 131.882 119.219 131.806 119.313 131.806H130.569C130.663 131.806 130.738 131.882 130.738 131.975V137.286Z" fill="#D9D9D9"/>
</mask>
<g mask="url(#mask0_634_12788)">
<g filter="url(#filter5_f_634_12788)">
<path d="M119.143 131.806H130.738L130.116 133.331H119.78L119.143 131.806Z" fill="#918C84" fill-opacity="0.75"/>
</g>
<g filter="url(#filter6_f_634_12788)">
<path d="M130.738 137.685H119.143L119.765 136.22H129.759L130.738 137.685Z" fill="#E9E7DE"/>
</g>
<g filter="url(#filter7_f_634_12788)">
<path d="M131.021 132.569L131.021 137.456L129.133 136.59L129.133 133.735L131.021 132.569Z" fill="#E9E7DE"/>
</g>
<g filter="url(#filter8_f_634_12788)">
<path d="M119.204 133.051H106.012L106.719 134.204H118.48L119.204 133.051Z" fill="#918C84" fill-opacity="0.5"/>
</g>
<g filter="url(#filter9_f_634_12788)">
<path d="M106.012 136.922H122.097L121.235 135.813H107.369L106.012 136.922Z" fill="#E9E7DE"/>
</g>
<g filter="url(#filter10_f_634_12788)">
<path d="M105.729 133.051L105.729 136.749L107.617 136.093L107.617 133.933L105.729 133.051Z" fill="#E9E7DE"/>
</g>
<g filter="url(#filter11_f_634_12788)">
<path d="M118.889 136.812L119.348 137.575L120.495 136.284L120.347 136.136L118.889 136.812Z" fill="#918C84" fill-opacity="0.5"/>
</g>
<g filter="url(#filter12_f_634_12788)">
<path d="M130.659 135.174L130.741 137.617L129.061 136.365L129.151 135.618L130.659 135.174Z" fill="url(#paint6_linear_634_12788)" fill-opacity="0.5"/>
</g>
<path d="M107.618 134.161C107.618 134.068 107.693 133.992 107.787 133.992H129.133V135.74H120.377V135.707C120.377 135.614 120.301 135.538 120.208 135.538H112.981H107.787C107.693 135.538 107.618 135.463 107.618 135.369V134.161Z" fill="#161616"/>
<mask id="path-18-inside-1_634_12788" fill="white">
<path d="M128.963 133.051C129.057 133.051 129.132 133.127 129.132 133.22V136.048C129.132 136.141 129.057 136.217 128.963 136.217H120.537C120.443 136.217 120.368 136.141 120.368 136.048V135.686C120.368 135.592 120.292 135.517 120.199 135.517H107.787C107.693 135.517 107.618 135.44 107.618 135.347V134.161C107.618 134.068 107.693 133.992 107.787 133.992H120.199C120.292 133.992 120.368 133.916 120.368 133.823V133.22C120.368 133.126 120.443 133.051 120.537 133.051H128.963Z"/>
</mask>
<g filter="url(#filter13_ii_634_12788)">
<path d="M128.963 133.051C129.057 133.051 129.132 133.127 129.132 133.22V136.048C129.132 136.141 129.057 136.217 128.963 136.217H120.537C120.443 136.217 120.368 136.141 120.368 136.048V135.686C120.368 135.592 120.292 135.517 120.199 135.517H107.787C107.693 135.517 107.618 135.44 107.618 135.347V134.161C107.618 134.068 107.693 133.992 107.787 133.992H120.199C120.292 133.992 120.368 133.916 120.368 133.823V133.22C120.368 133.126 120.443 133.051 120.537 133.051H128.963Z" fill="#D0C8B6" fill-opacity="0.01"/>
</g>
<path d="M128.963 133.051L128.963 133.042H128.963V133.051ZM129.132 133.22H129.141L129.141 133.22L129.132 133.22ZM128.963 136.217V136.225L128.963 136.225L128.963 136.217ZM120.537 136.217L120.537 136.225H120.537V136.217ZM107.787 135.517L107.787 135.525H107.787V135.517ZM107.618 134.161L107.609 134.161V134.161H107.618ZM107.787 133.992V133.984L107.787 133.984L107.787 133.992ZM120.368 133.22L120.359 133.22V133.22H120.368ZM120.537 133.051V133.042L120.537 133.042L120.537 133.051ZM128.963 133.051L128.963 133.059C129.052 133.059 129.124 133.131 129.124 133.22L129.132 133.22L129.141 133.22C129.141 133.122 129.061 133.042 128.963 133.042L128.963 133.051ZM129.132 133.22H129.124V136.048H129.132H129.141V133.22H129.132ZM129.132 136.048H129.124C129.124 136.137 129.052 136.208 128.963 136.208L128.963 136.217L128.963 136.225C129.061 136.225 129.141 136.146 129.141 136.048H129.132ZM128.963 136.217V136.208H120.537V136.217V136.225H128.963V136.217ZM120.537 136.217L120.537 136.208C120.448 136.208 120.376 136.137 120.376 136.048H120.368H120.359C120.359 136.146 120.439 136.225 120.537 136.225L120.537 136.217ZM120.368 136.048H120.376V135.686H120.368H120.359V136.048H120.368ZM120.199 135.517V135.508H107.787V135.517V135.525H120.199V135.517ZM107.787 135.517L107.787 135.508C107.698 135.508 107.626 135.435 107.626 135.347H107.618H107.609C107.609 135.445 107.689 135.525 107.787 135.525L107.787 135.517ZM107.618 135.347H107.626V134.161H107.618H107.609V135.347H107.618ZM107.618 134.161L107.626 134.161C107.626 134.073 107.698 134.001 107.787 134.001L107.787 133.992L107.787 133.984C107.689 133.984 107.609 134.063 107.609 134.161L107.618 134.161ZM107.787 133.992V134.001H120.199V133.992V133.984H107.787V133.992ZM120.368 133.823H120.376V133.22H120.368H120.359V133.823H120.368ZM120.368 133.22L120.376 133.22C120.376 133.131 120.448 133.059 120.537 133.059L120.537 133.051L120.537 133.042C120.439 133.042 120.359 133.122 120.359 133.22L120.368 133.22ZM120.537 133.051V133.059H128.963V133.051V133.042H120.537V133.051ZM120.199 133.992V134.001C120.297 134.001 120.376 133.921 120.376 133.823H120.368H120.359C120.359 133.912 120.287 133.984 120.199 133.984V133.992ZM120.368 135.686H120.376C120.376 135.588 120.297 135.508 120.199 135.508V135.517V135.525C120.287 135.525 120.359 135.597 120.359 135.686H120.368Z" fill="black" fill-opacity="0.25" mask="url(#path-18-inside-1_634_12788)"/>
</g>
<mask id="path-20-inside-2_634_12788" fill="white">
<path d="M130.738 137.286C130.738 137.38 130.663 137.456 130.569 137.456H119.313C119.219 137.456 119.144 137.38 119.144 137.286V136.772C119.144 136.679 119.068 136.603 118.974 136.603H106.158C106.065 136.603 105.989 136.527 105.989 136.434V133.072C105.989 132.979 106.065 132.903 106.158 132.903H118.974C119.068 132.903 119.144 132.827 119.144 132.734V131.975C119.144 131.882 119.219 131.806 119.313 131.806H130.569C130.663 131.806 130.738 131.882 130.738 131.975V137.286Z"/>
</mask>
<path d="M130.569 137.456V137.413H119.313V137.456V137.498H130.569V137.456ZM119.144 137.286H119.186V136.772H119.144H119.101V137.286H119.144ZM118.974 136.603V136.561H106.158V136.603V136.645H118.974V136.603ZM105.989 136.434H106.032V133.072H105.989H105.947V136.434H105.989ZM106.158 132.903V132.945H118.974V132.903V132.861H106.158V132.903ZM119.144 132.734H119.186V131.975H119.144H119.101V132.734H119.144ZM119.313 131.806V131.848H130.569V131.806V131.764H119.313V131.806ZM130.738 131.975H130.696V137.286H130.738H130.781V131.975H130.738ZM130.569 131.806V131.848C130.639 131.848 130.696 131.905 130.696 131.975H130.738H130.781C130.781 131.859 130.686 131.764 130.569 131.764V131.806ZM119.144 131.975H119.186C119.186 131.905 119.243 131.848 119.313 131.848V131.806V131.764C119.196 131.764 119.101 131.859 119.101 131.975H119.144ZM118.974 132.903V132.945C119.091 132.945 119.186 132.85 119.186 132.734H119.144H119.101C119.101 132.804 119.044 132.861 118.974 132.861V132.903ZM105.989 133.072H106.032C106.032 133.002 106.088 132.945 106.158 132.945V132.903V132.861C106.042 132.861 105.947 132.955 105.947 133.072H105.989ZM106.158 136.603V136.561C106.088 136.561 106.032 136.504 106.032 136.434H105.989H105.947C105.947 136.551 106.042 136.645 106.158 136.645V136.603ZM119.144 136.772H119.186C119.186 136.655 119.091 136.561 118.974 136.561V136.603V136.645C119.044 136.645 119.101 136.702 119.101 136.772H119.144ZM119.313 137.456V137.413C119.243 137.413 119.186 137.356 119.186 137.286H119.144H119.101C119.101 137.403 119.196 137.498 119.313 137.498V137.456ZM130.569 137.456V137.498C130.686 137.498 130.781 137.403 130.781 137.286H130.738H130.696C130.696 137.356 130.639 137.413 130.569 137.413V137.456Z" fill="black" fill-opacity="0.15" mask="url(#path-20-inside-2_634_12788)"/>
<g clip-path="url(#clip1_634_12788)">
<path d="M31.4746 73.7464C39.0751 69.2924 47.7605 62.5926 48.8237 53.0991" stroke="url(#paint7_linear_634_12788)" stroke-width="2.59696" stroke-linecap="round"/>
<path d="M48.8237 53.0987C49.3287 48.5901 44.7809 47.8202 43.3052 51.8003C42.1149 55.0104 41.2543 65.0476 40.569 69.8688C39.8837 74.69 39.7344 75.3532 39.7344 75.3532" stroke="url(#paint8_linear_634_12788)" stroke-width="2.59696" stroke-linecap="round"/>
<path d="M39.7344 75.3534C40.1552 72.552 41.3214 66.9133 43.2691 64.6049C45.4095 62.0681 49.5797 61.4472 50.0861 65.6508C50.4468 68.6446 48.427 73.1171 50.4108 74.632C52.3945 76.1469 57.372 74.8484 59.464 73.4417C60.1618 73.0199 60.8251 72.5872 60.8251 72.5872" stroke="url(#paint9_linear_634_12788)" stroke-width="2.59696" stroke-linecap="round"/>
<path d="M60.8232 72.5886C62.7068 71.4581 64.8475 69.5072 65.6318 66.749C66.4066 64.0238 64.7474 62.2899 62.7463 62.2275" stroke="url(#paint10_linear_634_12788)" stroke-width="2.59696" stroke-linecap="round"/>
<path d="M62.7461 62.2273C61.6385 62.1928 60.4261 62.6703 59.4638 63.7752C57.61 65.9035 57.1052 70.1062 59.1392 72.5107C60.1377 73.8633 62.4857 75.1331 65.3069 75.1253" stroke="url(#paint11_linear_634_12788)" stroke-width="2.59696" stroke-linecap="round"/>
<path d="M65.3071 75.1252C67.7851 75.1183 70.628 74.1207 73.2423 71.3134C73.8589 70.6657 74.2522 70.2315 74.2522 70.2315C75.8633 68.1996 79.1576 64.0795 80.4921 59.3746C81.5721 55.5673 82.2234 50.5738 80.2757 49.6361C79.9827 49.495 79.6805 49.4261 79.374 49.4273" stroke="url(#paint12_linear_634_12788)" stroke-width="2.59696" stroke-linecap="round"/>
<path d="M79.3741 49.4272C77.4161 49.4345 75.2814 52.2971 74.2523 57.4428C73.4138 61.6352 73.2424 63.8472 73.2424 67.0212C73.1822 69.6903 73.9637 75.3459 78.5805 75.4613" stroke="url(#paint13_linear_634_12788)" stroke-width="2.59696" stroke-linecap="round"/>
<path d="M78.5806 75.4616C83.9548 75.5959 87.8237 70.5361 89.5095 67.9232C90.9522 65.6869 93.4164 60.7579 94.4509 56.6337C95.6411 51.8885 95.0067 50.2344 93.3688 49.6724" stroke="url(#paint14_linear_634_12788)" stroke-width="2.59696" stroke-linecap="round"/>
<path d="M93.3689 49.6725C91.3129 48.9671 89.0045 51.7645 87.8864 56.6338C86.8658 61.0785 85.7944 66.9495 87.0929 70.7007C87.5618 72.281 89.5095 75.4416 92.395 75.4416" stroke="url(#paint15_linear_634_12788)" stroke-width="2.59696" stroke-linecap="round"/>
<path d="M92.395 75.4414C96.1218 75.4654 99.1729 72.1952 100.688 66.7849C101.121 65.27 102.751 62.2402 105.81 62.2402" stroke="url(#paint16_linear_634_12788)" stroke-width="2.59696" stroke-linecap="round"/>
<path d="M105.087 75.3693C109.618 75.1673 110.846 70.6683 110.894 68.4441C111.099 66.316 110.361 62.2402 106.061 62.2402" stroke="url(#paint17_linear_634_12788)" stroke-width="2.59696" stroke-linecap="round"/>
<path d="M105.088 75.3693C100.258 75.5857 99.753 70.5361 100.688 66.7849C101.121 65.27 102.751 62.2403 105.809 62.2403C109.633 62.2403 109.344 64.0798 112.085 64.0076C114.278 63.9499 116.005 62.4446 116.594 61.6992" stroke="url(#paint18_linear_634_12788)" stroke-width="2.59696" stroke-linecap="round"/>
</g>
</g>
<defs>
<filter id="filter0_iiiiii_634_12788" x="-1.56689" y="-5.90484" width="151.133" height="157.053" filterUnits="userSpaceOnUse" color-interpolation-filters="sRGB">
<feFlood flood-opacity="0" result="BackgroundImageFix"/>
<feBlend mode="normal" in="SourceGraphic" in2="BackgroundImageFix" result="shape"/>
<feColorMatrix in="SourceAlpha" type="matrix" values="0 0 0 0 0 0 0 0 0 0 0 0 0 0 0 0 0 0 127 0" result="hardAlpha"/>
<feOffset dy="-4.22857"/>
<feGaussianBlur stdDeviation="6.34286"/>
<feComposite in2="hardAlpha" operator="arithmetic" k2="-1" k3="1"/>
<feColorMatrix type="matrix" values="0 0 0 0 0.720833 0 0 0 0 0.720833 0 0 0 0 0.720833 0 0 0 1 0"/>
<feBlend mode="normal" in2="shape" result="effect1_innerShadow_634_12788"/>
<feColorMatrix in="SourceAlpha" type="matrix" values="0 0 0 0 0 0 0 0 0 0 0 0 0 0 0 0 0 0 127 0" result="hardAlpha"/>
<feOffset dy="1.69143"/>
<feGaussianBlur stdDeviation="1.69143"/>
<feComposite in2="hardAlpha" operator="arithmetic" k2="-1" k3="1"/>
<feColorMatrix type="matrix" values="0 0 0 0 0.216667 0 0 0 0 0.188681 0 0 0 0 0.188681 0 0 0 0.4 0"/>
<feBlend mode="normal" in2="effect1_innerShadow_634_12788" result="effect2_innerShadow_634_12788"/>
<feColorMatrix in="SourceAlpha" type="matrix" values="0 0 0 0 0 0 0 0 0 0 0 0 0 0 0 0 0 0 127 0" result="hardAlpha"/>
<feOffset/>
<feGaussianBlur stdDeviation="2.96"/>
<feComposite in2="hardAlpha" operator="arithmetic" k2="-1" k3="1"/>
<feColorMatrix type="matrix" values="0 0 0 0 1 0 0 0 0 1 0 0 0 0 1 0 0 0 1 0"/>
<feBlend mode="normal" in2="effect2_innerShadow_634_12788" result="effect3_innerShadow_634_12788"/>
<feColorMatrix in="SourceAlpha" type="matrix" values="0 0 0 0 0 0 0 0 0 0 0 0 0 0 0 0 0 0 127 0" result="hardAlpha"/>
<feOffset dy="-4.22857"/>
<feGaussianBlur stdDeviation="1.26857"/>
<feComposite in2="hardAlpha" operator="arithmetic" k2="-1" k3="1"/>
<feColorMatrix type="matrix" values="0 0 0 0 0.0958333 0 0 0 0 0.0958333 0 0 0 0 0.0958333 0 0 0 0.5 0"/>
<feBlend mode="normal" in2="effect3_innerShadow_634_12788" result="effect4_innerShadow_634_12788"/>
<feColorMatrix in="SourceAlpha" type="matrix" values="0 0 0 0 0 0 0 0 0 0 0 0 0 0 0 0 0 0 127 0" result="hardAlpha"/>
<feOffset dy="-0.845714"/>
<feComposite in2="hardAlpha" operator="arithmetic" k2="-1" k3="1"/>
<feColorMatrix type="matrix" values="0 0 0 0 1 0 0 0 0 1 0 0 0 0 1 0 0 0 1 0"/>
<feBlend mode="normal" in2="effect4_innerShadow_634_12788" result="effect5_innerShadow_634_12788"/>
<feColorMatrix in="SourceAlpha" type="matrix" values="0 0 0 0 0 0 0 0 0 0 0 0 0 0 0 0 0 0 127 0" result="hardAlpha"/>
<feOffset dy="-2.53714"/>
<feGaussianBlur stdDeviation="2.96"/>
<feComposite in2="hardAlpha" operator="arithmetic" k2="-1" k3="1"/>
<feColorMatrix type="matrix" values="0 0 0 0 1 0 0 0 0 1 0 0 0 0 1 0 0 0 1 0"/>
<feBlend mode="normal" in2="effect5_innerShadow_634_12788" result="effect6_innerShadow_634_12788"/>
</filter>
<filter id="filter1_diiiiii_634_12788" x="-3.38286" y="-4.22857" width="154.766" height="135.619" filterUnits="userSpaceOnUse" color-interpolation-filters="sRGB">
<feFlood flood-opacity="0" result="BackgroundImageFix"/>
<feColorMatrix in="SourceAlpha" type="matrix" values="0 0 0 0 0 0 0 0 0 0 0 0 0 0 0 0 0 0 127 0" result="hardAlpha"/>
<feOffset dy="3.38286"/>
<feGaussianBlur stdDeviation="1.69143"/>
<feComposite in2="hardAlpha" operator="out"/>
<feColorMatrix type="matrix" values="0 0 0 0 0 0 0 0 0 0 0 0 0 0 0 0 0 0 0.25 0"/>
<feBlend mode="normal" in2="BackgroundImageFix" result="effect1_dropShadow_634_12788"/>
<feBlend mode="normal" in="SourceGraphic" in2="effect1_dropShadow_634_12788" result="shape"/>
<feColorMatrix in="SourceAlpha" type="matrix" values="0 0 0 0 0 0 0 0 0 0 0 0 0 0 0 0 0 0 127 0" result="hardAlpha"/>
<feOffset dy="-4.22857"/>
<feGaussianBlur stdDeviation="6.34286"/>
<feComposite in2="hardAlpha" operator="arithmetic" k2="-1" k3="1"/>
<feColorMatrix type="matrix" values="0 0 0 0 0.720833 0 0 0 0 0.720833 0 0 0 0 0.720833 0 0 0 1 0"/>
<feBlend mode="normal" in2="shape" result="effect2_innerShadow_634_12788"/>
<feColorMatrix in="SourceAlpha" type="matrix" values="0 0 0 0 0 0 0 0 0 0 0 0 0 0 0 0 0 0 127 0" result="hardAlpha"/>
<feOffset dy="1.69143"/>
<feGaussianBlur stdDeviation="1.69143"/>
<feComposite in2="hardAlpha" operator="arithmetic" k2="-1" k3="1"/>
<feColorMatrix type="matrix" values="0 0 0 0 0.216667 0 0 0 0 0.188681 0 0 0 0 0.188681 0 0 0 0.4 0"/>
<feBlend mode="normal" in2="effect2_innerShadow_634_12788" result="effect3_innerShadow_634_12788"/>
<feColorMatrix in="SourceAlpha" type="matrix" values="0 0 0 0 0 0 0 0 0 0 0 0 0 0 0 0 0 0 127 0" result="hardAlpha"/>
<feOffset/>
<feGaussianBlur stdDeviation="2.96"/>
<feComposite in2="hardAlpha" operator="arithmetic" k2="-1" k3="1"/>
<feColorMatrix type="matrix" values="0 0 0 0 1 0 0 0 0 1 0 0 0 0 1 0 0 0 1 0"/>
<feBlend mode="normal" in2="effect3_innerShadow_634_12788" result="effect4_innerShadow_634_12788"/>
<feColorMatrix in="SourceAlpha" type="matrix" values="0 0 0 0 0 0 0 0 0 0 0 0 0 0 0 0 0 0 127 0" result="hardAlpha"/>
<feOffset dy="-5.07429"/>
<feGaussianBlur stdDeviation="0.845714"/>
<feComposite in2="hardAlpha" operator="arithmetic" k2="-1" k3="1"/>
<feColorMatrix type="matrix" values="0 0 0 0 0.0958333 0 0 0 0 0.0958333 0 0 0 0 0.0958333 0 0 0 0.5 0"/>
<feBlend mode="normal" in2="effect4_innerShadow_634_12788" result="effect5_innerShadow_634_12788"/>
<feColorMatrix in="SourceAlpha" type="matrix" values="0 0 0 0 0 0 0 0 0 0 0 0 0 0 0 0 0 0 127 0" result="hardAlpha"/>
<feOffset dy="-0.845714"/>
<feGaussianBlur stdDeviation="0.422857"/>
<feComposite in2="hardAlpha" operator="arithmetic" k2="-1" k3="1"/>
<feColorMatrix type="matrix" values="0 0 0 0 0 0 0 0 0 0 0 0 0 0 0 0 0 0 1 0"/>
<feBlend mode="normal" in2="effect5_innerShadow_634_12788" result="effect6_innerShadow_634_12788"/>
<feColorMatrix in="SourceAlpha" type="matrix" values="0 0 0 0 0 0 0 0 0 0 0 0 0 0 0 0 0 0 127 0" result="hardAlpha"/>
<feOffset dy="-2.53714"/>
<feGaussianBlur stdDeviation="2.96"/>
<feComposite in2="hardAlpha" operator="arithmetic" k2="-1" k3="1"/>
<feColorMatrix type="matrix" values="0 0 0 0 1 0 0 0 0 1 0 0 0 0 1 0 0 0 1 0"/>
<feBlend mode="normal" in2="effect6_innerShadow_634_12788" result="effect7_innerShadow_634_12788"/>
</filter>
<filter id="filter2_iiiiiii_634_12788" x="9.09343" y="7.27556" width="129.813" height="112.731" filterUnits="userSpaceOnUse" color-interpolation-filters="sRGB">
<feFlood flood-opacity="0" result="BackgroundImageFix"/>
<feBlend mode="normal" in="SourceGraphic" in2="BackgroundImageFix" result="shape"/>
<feColorMatrix in="SourceAlpha" type="matrix" values="0 0 0 0 0 0 0 0 0 0 0 0 0 0 0 0 0 0 127 0" result="hardAlpha"/>
<feOffset dy="1.61089"/>
<feGaussianBlur stdDeviation="1.61089"/>
<feComposite in2="hardAlpha" operator="arithmetic" k2="-1" k3="1"/>
<feColorMatrix type="matrix" values="0 0 0 0 0.216667 0 0 0 0 0.188681 0 0 0 0 0.188681 0 0 0 0.4 0"/>
<feBlend mode="normal" in2="shape" result="effect1_innerShadow_634_12788"/>
<feColorMatrix in="SourceAlpha" type="matrix" values="0 0 0 0 0 0 0 0 0 0 0 0 0 0 0 0 0 0 127 0" result="hardAlpha"/>
<feOffset/>
<feGaussianBlur stdDeviation="2.81906"/>
<feComposite in2="hardAlpha" operator="arithmetic" k2="-1" k3="1"/>
<feColorMatrix type="matrix" values="0 0 0 0 1 0 0 0 0 1 0 0 0 0 1 0 0 0 1 0"/>
<feBlend mode="normal" in2="effect1_innerShadow_634_12788" result="effect2_innerShadow_634_12788"/>
<feColorMatrix in="SourceAlpha" type="matrix" values="0 0 0 0 0 0 0 0 0 0 0 0 0 0 0 0 0 0 127 0" result="hardAlpha"/>
<feOffset dy="13.5314"/>
<feGaussianBlur stdDeviation="2.53714"/>
<feComposite in2="hardAlpha" operator="arithmetic" k2="-1" k3="1"/>
<feColorMatrix type="matrix" values="0 0 0 0 0.0958333 0 0 0 0 0.0958333 0 0 0 0 0.0958333 0 0 0 0.5 0"/>
<feBlend mode="normal" in2="effect2_innerShadow_634_12788" result="effect3_innerShadow_634_12788"/>
<feColorMatrix in="SourceAlpha" type="matrix" values="0 0 0 0 0 0 0 0 0 0 0 0 0 0 0 0 0 0 127 0" result="hardAlpha"/>
<feOffset dx="4.83268"/>
<feGaussianBlur stdDeviation="1.20817"/>
<feComposite in2="hardAlpha" operator="arithmetic" k2="-1" k3="1"/>
<feColorMatrix type="matrix" values="0 0 0 0 0.0958333 0 0 0 0 0.0958333 0 0 0 0 0.0958333 0 0 0 0.25 0"/>
<feBlend mode="normal" in2="effect3_innerShadow_634_12788" result="effect4_innerShadow_634_12788"/>
<feColorMatrix in="SourceAlpha" type="matrix" values="0 0 0 0 0 0 0 0 0 0 0 0 0 0 0 0 0 0 127 0" result="hardAlpha"/>
<feOffset dx="-4.83268"/>
<feGaussianBlur stdDeviation="1.20817"/>
<feComposite in2="hardAlpha" operator="arithmetic" k2="-1" k3="1"/>
<feColorMatrix type="matrix" values="0 0 0 0 0.0958333 0 0 0 0 0.0958333 0 0 0 0 0.0958333 0 0 0 0.25 0"/>
<feBlend mode="normal" in2="effect4_innerShadow_634_12788" result="effect5_innerShadow_634_12788"/>
<feColorMatrix in="SourceAlpha" type="matrix" values="0 0 0 0 0 0 0 0 0 0 0 0 0 0 0 0 0 0 127 0" result="hardAlpha"/>
<feOffset dy="-0.805446"/>
<feGaussianBlur stdDeviation="0.402723"/>
<feComposite in2="hardAlpha" operator="arithmetic" k2="-1" k3="1"/>
<feColorMatrix type="matrix" values="0 0 0 0 0 0 0 0 0 0 0 0 0 0 0 0 0 0 1 0"/>
<feBlend mode="normal" in2="effect5_innerShadow_634_12788" result="effect6_innerShadow_634_12788"/>
<feColorMatrix in="SourceAlpha" type="matrix" values="0 0 0 0 0 0 0 0 0 0 0 0 0 0 0 0 0 0 127 0" result="hardAlpha"/>
<feOffset dy="-2.41634"/>
<feGaussianBlur stdDeviation="2.81906"/>
<feComposite in2="hardAlpha" operator="arithmetic" k2="-1" k3="1"/>
<feColorMatrix type="matrix" values="0 0 0 0 1 0 0 0 0 1 0 0 0 0 1 0 0 0 1 0"/>
<feBlend mode="normal" in2="effect6_innerShadow_634_12788" result="effect7_innerShadow_634_12788"/>
</filter>
<filter id="filter3_i_634_12788" x="16.9277" y="14.9761" width="114.144" height="97.8932" filterUnits="userSpaceOnUse" color-interpolation-filters="sRGB">
<feFlood flood-opacity="0" result="BackgroundImageFix"/>
<feBlend mode="normal" in="SourceGraphic" in2="BackgroundImageFix" result="shape"/>
<feColorMatrix in="SourceAlpha" type="matrix" values="0 0 0 0 0 0 0 0 0 0 0 0 0 0 0 0 0 0 127 0" result="hardAlpha"/>
<feOffset dy="3.22179"/>
<feGaussianBlur stdDeviation="2.01362"/>
<feComposite in2="hardAlpha" operator="arithmetic" k2="-1" k3="1"/>
<feColorMatrix type="matrix" values="0 0 0 0 0 0 0 0 0 0 0 0 0 0 0 0 0 0 0.75 0"/>
<feBlend mode="normal" in2="shape" result="effect1_innerShadow_634_12788"/>
</filter>
<filter id="filter4_i_634_12788" x="14.0747" y="127.714" width="10.1484" height="10.5106" filterUnits="userSpaceOnUse" color-interpolation-filters="sRGB">
<feFlood flood-opacity="0" result="BackgroundImageFix"/>
<feBlend mode="normal" in="SourceGraphic" in2="BackgroundImageFix" result="shape"/>
<feColorMatrix in="SourceAlpha" type="matrix" values="0 0 0 0 0 0 0 0 0 0 0 0 0 0 0 0 0 0 127 0" result="hardAlpha"/>
<feOffset dy="0.362193"/>
<feGaussianBlur stdDeviation="0.226371"/>
<feComposite in2="hardAlpha" operator="arithmetic" k2="-1" k3="1"/>
<feColorMatrix type="matrix" values="0 0 0 0 0.662745 0 0 0 0 0.647059 0 0 0 0 0.603922 0 0 0 1 0"/>
<feBlend mode="normal" in2="shape" result="effect1_innerShadow_634_12788"/>
</filter>
<filter id="filter5_f_634_12788" x="118.297" y="130.96" width="13.2862" height="3.21584" filterUnits="userSpaceOnUse" color-interpolation-filters="sRGB">
<feFlood flood-opacity="0" result="BackgroundImageFix"/>
<feBlend mode="normal" in="SourceGraphic" in2="BackgroundImageFix" result="shape"/>
<feGaussianBlur stdDeviation="0.422857" result="effect1_foregroundBlur_634_12788"/>
</filter>
<filter id="filter6_f_634_12788" x="118.297" y="135.374" width="13.2862" height="3.15627" filterUnits="userSpaceOnUse" color-interpolation-filters="sRGB">
<feFlood flood-opacity="0" result="BackgroundImageFix"/>
<feBlend mode="normal" in="SourceGraphic" in2="BackgroundImageFix" result="shape"/>
<feGaussianBlur stdDeviation="0.422857" result="effect1_foregroundBlur_634_12788"/>
</filter>
<filter id="filter7_f_634_12788" x="128.287" y="131.723" width="3.57961" height="6.57912" filterUnits="userSpaceOnUse" color-interpolation-filters="sRGB">
<feFlood flood-opacity="0" result="BackgroundImageFix"/>
<feBlend mode="normal" in="SourceGraphic" in2="BackgroundImageFix" result="shape"/>
<feGaussianBlur stdDeviation="0.422857" result="effect1_foregroundBlur_634_12788"/>
</filter>
<filter id="filter8_f_634_12788" x="105.166" y="132.205" width="14.8833" height="2.84524" filterUnits="userSpaceOnUse" color-interpolation-filters="sRGB">
<feFlood flood-opacity="0" result="BackgroundImageFix"/>
<feBlend mode="normal" in="SourceGraphic" in2="BackgroundImageFix" result="shape"/>
<feGaussianBlur stdDeviation="0.422857" result="effect1_foregroundBlur_634_12788"/>
</filter>
<filter id="filter9_f_634_12788" x="105.166" y="134.968" width="17.7769" height="2.79983" filterUnits="userSpaceOnUse" color-interpolation-filters="sRGB">
<feFlood flood-opacity="0" result="BackgroundImageFix"/>
<feBlend mode="normal" in="SourceGraphic" in2="BackgroundImageFix" result="shape"/>
<feGaussianBlur stdDeviation="0.422857" result="effect1_foregroundBlur_634_12788"/>
</filter>
<filter id="filter10_f_634_12788" x="104.884" y="132.205" width="3.57961" height="5.38967" filterUnits="userSpaceOnUse" color-interpolation-filters="sRGB">
<feFlood flood-opacity="0" result="BackgroundImageFix"/>
<feBlend mode="normal" in="SourceGraphic" in2="BackgroundImageFix" result="shape"/>
<feGaussianBlur stdDeviation="0.422857" result="effect1_foregroundBlur_634_12788"/>
</filter>
<filter id="filter11_f_634_12788" x="118.466" y="135.713" width="2.45167" height="2.28517" filterUnits="userSpaceOnUse" color-interpolation-filters="sRGB">
<feFlood flood-opacity="0" result="BackgroundImageFix"/>
<feBlend mode="normal" in="SourceGraphic" in2="BackgroundImageFix" result="shape"/>
<feGaussianBlur stdDeviation="0.211429" result="effect1_foregroundBlur_634_12788"/>
</filter>
<filter id="filter12_f_634_12788" x="128.638" y="134.75" width="2.52589" height="3.28907" filterUnits="userSpaceOnUse" color-interpolation-filters="sRGB">
<feFlood flood-opacity="0" result="BackgroundImageFix"/>
<feBlend mode="normal" in="SourceGraphic" in2="BackgroundImageFix" result="shape"/>
<feGaussianBlur stdDeviation="0.211429" result="effect1_foregroundBlur_634_12788"/>
</filter>
<filter id="filter13_ii_634_12788" x="107.618" y="132.882" width="21.5146" height="3.41127" filterUnits="userSpaceOnUse" color-interpolation-filters="sRGB">
<feFlood flood-opacity="0" result="BackgroundImageFix"/>
<feBlend mode="normal" in="SourceGraphic" in2="BackgroundImageFix" result="shape"/>
<feColorMatrix in="SourceAlpha" type="matrix" values="0 0 0 0 0 0 0 0 0 0 0 0 0 0 0 0 0 0 127 0" result="hardAlpha"/>
<feOffset dy="0.253714"/>
<feGaussianBlur stdDeviation="0.0380571"/>
<feComposite in2="hardAlpha" operator="arithmetic" k2="-1" k3="1"/>
<feColorMatrix type="matrix" values="0 0 0 0 0 0 0 0 0 0 0 0 0 0 0 0 0 0 0.35 0"/>
<feBlend mode="normal" in2="shape" result="effect1_innerShadow_634_12788"/>
<feColorMatrix in="SourceAlpha" type="matrix" values="0 0 0 0 0 0 0 0 0 0 0 0 0 0 0 0 0 0 127 0" result="hardAlpha"/>
<feOffset dy="-0.169143"/>
<feGaussianBlur stdDeviation="0.0845714"/>
<feComposite in2="hardAlpha" operator="arithmetic" k2="-1" k3="1"/>
<feColorMatrix type="matrix" values="0 0 0 0 0 0 0 0 0 0 0 0 0 0 0 0 0 0 0.05 0"/>
<feBlend mode="normal" in2="effect1_innerShadow_634_12788" result="effect2_innerShadow_634_12788"/>
</filter>
<linearGradient id="paint0_linear_634_12788" x1="149.566" y1="149.457" x2="149.566" y2="-1.67627" gradientUnits="userSpaceOnUse">
<stop stop-color="#837D70"/>
<stop offset="1" stop-color="#CDC7BC"/>
</linearGradient>
<linearGradient id="paint1_linear_634_12788" x1="148" y1="124.624" x2="148" y2="0" gradientUnits="userSpaceOnUse">
<stop stop-color="#B2ACA1"/>
<stop offset="1" stop-color="#CBC6B9"/>
</linearGradient>
<linearGradient id="paint2_linear_634_12788" x1="136.49" y1="114.932" x2="136.49" y2="9.69189" gradientUnits="userSpaceOnUse">
<stop stop-color="#B2ACA1"/>
<stop offset="1" stop-color="#CBC6B9"/>
</linearGradient>
<linearGradient id="paint3_linear_634_12788" x1="24.9442" y1="19.9263" x2="118.453" y2="94.826" gradientUnits="userSpaceOnUse">
<stop stop-color="#404040"/>
<stop offset="0.494792" stop-color="#222222"/>
<stop offset="1" stop-color="#404040"/>
</linearGradient>
<linearGradient id="paint4_linear_634_12788" x1="14.7875" y1="128.245" x2="24.2563" y2="134.535" gradientUnits="userSpaceOnUse">
<stop stop-color="#D8D2C5"/>
<stop offset="0.494792" stop-color="#D8D1C6"/>
<stop offset="1" stop-color="#CEC8BB"/>
</linearGradient>
<linearGradient id="paint5_linear_634_12788" x1="15.2712" y1="127.714" x2="25.0774" y2="141.217" gradientUnits="userSpaceOnUse">
<stop stop-color="#ADA89E"/>
<stop offset="0.494792" stop-color="#EFEEEB"/>
<stop offset="1" stop-color="#ADA99E"/>
</linearGradient>
<linearGradient id="paint6_linear_634_12788" x1="130.507" y1="136.892" x2="129.525" y2="135.255" gradientUnits="userSpaceOnUse">
<stop stop-color="#918C84"/>
<stop offset="1" stop-color="#918C84" stop-opacity="0"/>
</linearGradient>
<linearGradient id="paint7_linear_634_12788" x1="50.6632" y1="49.0032" x2="45.5108" y2="76.3874" gradientUnits="userSpaceOnUse">
<stop stop-color="#58AA86"/>
<stop offset="0.545471" stop-color="#ACD15E"/>
<stop offset="0.821609" stop-color="#23929E"/>
</linearGradient>
<linearGradient id="paint8_linear_634_12788" x1="50.1583" y1="47.9208" x2="30.3077" y2="72.8156" gradientUnits="userSpaceOnUse">
<stop stop-color="#58AA86"/>
<stop offset="0.545471" stop-color="#ACD15E"/>
<stop offset="1" stop-color="#D7DA0D"/>
</linearGradient>
<linearGradient id="paint9_linear_634_12788" x1="39.7344" y1="74.4877" x2="58.2016" y2="75.3534" gradientUnits="userSpaceOnUse">
<stop stop-color="#D6D90D"/>
<stop offset="0.494792" stop-color="#FAD500"/>
<stop offset="1" stop-color="#FDD35D"/>
</linearGradient>
<linearGradient id="paint10_linear_634_12788" x1="64.5858" y1="62.7814" x2="59.7525" y2="73.1331" gradientUnits="userSpaceOnUse">
<stop stop-color="#FFCB66"/>
<stop offset="1" stop-color="#FFD570"/>
</linearGradient>
<linearGradient id="paint11_linear_634_12788" x1="59.4999" y1="76.307" x2="63.1275" y2="60.338" gradientUnits="userSpaceOnUse">
<stop stop-color="#FF9932"/>
<stop offset="1" stop-color="#FFD570"/>
</linearGradient>
<linearGradient id="paint12_linear_634_12788" x1="79.1936" y1="49.4356" x2="65.3071" y2="75.1166" gradientUnits="userSpaceOnUse">
<stop stop-color="#F9754E"/>
<stop offset="1" stop-color="#FF9F38"/>
</linearGradient>
<linearGradient id="paint13_linear_634_12788" x1="77.5345" y1="49.4356" x2="77.5345" y2="75.4773" gradientUnits="userSpaceOnUse">
<stop stop-color="#FA754E"/>
<stop offset="0.778645" stop-color="#F65544"/>
<stop offset="1" stop-color="#F35F53"/>
</linearGradient>
<linearGradient id="paint14_linear_634_12788" x1="93.5131" y1="49.6522" x2="93.5131" y2="75.4775" gradientUnits="userSpaceOnUse">
<stop offset="0.00079382" stop-color="#BF7393"/>
<stop offset="1" stop-color="#F35F53"/>
</linearGradient>
<linearGradient id="paint15_linear_634_12788" x1="91.3851" y1="49.5802" x2="93.3511" y2="75.3275" gradientUnits="userSpaceOnUse">
<stop stop-color="#BF7393"/>
<stop offset="1" stop-color="#816CB0"/>
</linearGradient>
<linearGradient id="paint16_linear_634_12788" x1="92.3367" y1="75.4964" x2="91.2215" y2="60.0103" gradientUnits="userSpaceOnUse">
<stop stop-color="#816CB0"/>
<stop offset="1" stop-color="#625EAA"/>
</linearGradient>
<linearGradient id="paint17_linear_634_12788" x1="105.609" y1="62.2763" x2="105.609" y2="75.4054" gradientUnits="userSpaceOnUse">
<stop stop-color="#6163B8"/>
<stop offset="1" stop-color="#6784D0"/>
</linearGradient>
<linearGradient id="paint18_linear_634_12788" x1="105.308" y1="75.4054" x2="108.446" y2="59.3547" gradientUnits="userSpaceOnUse">
<stop stop-color="#6784D0"/>
<stop offset="0.586308" stop-color="#51A5D3"/>
<stop offset="1" stop-color="#7FB6DD"/>
</linearGradient>
<clipPath id="clip0_634_12788">
<rect width="148" height="148" rx="20" fill="white"/>
</clipPath>
<clipPath id="clip1_634_12788">
<rect width="87.7916" height="28.9272" fill="white" transform="translate(30.104 47.8486)"/>
</clipPath>
</defs>
</svg>
